<svg version="1.1" viewBox="0.0 0.0 838.8635170603675 669.9790026246719" fill="none" stroke="none" stroke-linecap="square" stroke-miterlimit="10" xmlns:xlink="http://www.w3.org/1999/xlink" xmlns="http://www.w3.org/2000/svg"><clipPath id="p.0"><path d="m0 0l838.8635 0l0 669.979l-838.8635 0l0 -669.979z" clip-rule="nonzero"/></clipPath><g clip-path="url(#p.0)"><path fill="#000000" fill-opacity="0.0" d="m0 0l838.8635 0l0 669.979l-838.8635 0z" fill-rule="evenodd"/><path fill="#000000" fill-opacity="0.0" d="m406.3281 177.13911l196.59842 0l0 362.5827l-196.59842 0z" fill-rule="evenodd"/><path stroke="#000000" stroke-width="2.0" stroke-linejoin="round" stroke-linecap="butt" stroke-dasharray="8.0,6.0,2.0,6.0" d="m406.3281 177.13911l196.59842 0l0 362.5827l-196.59842 0z" fill-rule="evenodd"/><path fill="#000000" fill-opacity="0.0" d="m105.16273 55.897636l68.22048 0l0 581.8583l-68.22048 0z" fill-rule="evenodd"/><path stroke="#000000" stroke-width="2.0" stroke-linejoin="round" stroke-linecap="butt" stroke-dasharray="8.0,6.0,2.0,6.0" d="m105.16273 55.897636l68.22048 0l0 581.8583l-68.22048 0z" fill-rule="evenodd"/><path fill="#000000" fill-opacity="0.0" d="m35.87139 63.66142l52.944885 0l0 88.81889l-52.944885 0z" fill-rule="evenodd"/><path stroke="#000000" stroke-width="1.0" stroke-linejoin="round" stroke-linecap="butt" d="m35.87139 63.66142l52.944885 0l0 88.81889l-52.944885 0z" fill-rule="evenodd"/><path fill="#000000" fill-opacity="0.0" d="m37.58005 64.514435l27.212597 26.141731" fill-rule="evenodd"/><path stroke="#000000" stroke-width="1.0" stroke-linejoin="round" stroke-linecap="butt" d="m37.58005 64.514435l27.212597 26.141731" fill-rule="evenodd"/><path fill="#000000" fill-opacity="0.0" d="m64.05774 90.99213l25.16536 -27.055119" fill-rule="evenodd"/><path stroke="#000000" stroke-width="1.0" stroke-linejoin="round" stroke-linecap="butt" d="m64.05774 90.99213l25.16536 -27.055119" fill-rule="evenodd"/><path fill="#000000" fill-opacity="0.0" d="m35.66798 184.2441l52.94488 0l0 88.81889l-52.94488 0z" fill-rule="evenodd"/><path stroke="#000000" stroke-width="1.0" stroke-linejoin="round" stroke-linecap="butt" d="m35.66798 184.2441l52.94488 0l0 88.81889l-52.94488 0z" fill-rule="evenodd"/><path fill="#000000" fill-opacity="0.0" d="m37.37664 185.0971l27.2126 26.141739" fill-rule="evenodd"/><path stroke="#000000" stroke-width="1.0" stroke-linejoin="round" stroke-linecap="butt" d="m37.37664 185.0971l27.2126 26.141739" fill-rule="evenodd"/><path fill="#000000" fill-opacity="0.0" d="m63.854332 211.5748l25.165352 -27.055115" fill-rule="evenodd"/><path stroke="#000000" stroke-width="1.0" stroke-linejoin="round" stroke-linecap="butt" d="m63.854332 211.5748l25.165352 -27.055115" fill-rule="evenodd"/><path fill="#000000" fill-opacity="0.0" d="m35.666668 304.82678l52.94488 0l0 88.81888l-52.94488 0z" fill-rule="evenodd"/><path stroke="#000000" stroke-width="1.0" stroke-linejoin="round" stroke-linecap="butt" d="m35.666668 304.82678l52.94488 0l0 88.81888l-52.94488 0z" fill-rule="evenodd"/><path fill="#000000" fill-opacity="0.0" d="m37.375328 305.67978l27.2126 26.141754" fill-rule="evenodd"/><path stroke="#000000" stroke-width="1.0" stroke-linejoin="round" stroke-linecap="butt" d="m37.375328 305.67978l27.2126 26.141754" fill-rule="evenodd"/><path fill="#000000" fill-opacity="0.0" d="m63.85302 332.15747l25.165352 -27.055115" fill-rule="evenodd"/><path stroke="#000000" stroke-width="1.0" stroke-linejoin="round" stroke-linecap="butt" d="m63.85302 332.15747l25.165352 -27.055115" fill-rule="evenodd"/><path fill="#000000" fill-opacity="0.0" d="m35.66798 538.8714l52.94488 0l0 88.81891l-52.94488 0z" fill-rule="evenodd"/><path stroke="#000000" stroke-width="1.0" stroke-linejoin="round" stroke-linecap="butt" d="m35.66798 538.8714l52.94488 0l0 88.81891l-52.94488 0z" fill-rule="evenodd"/><path fill="#000000" fill-opacity="0.0" d="m37.37664 539.7244l27.2126 26.141724" fill-rule="evenodd"/><path stroke="#000000" stroke-width="1.0" stroke-linejoin="round" stroke-linecap="butt" d="m37.37664 539.7244l27.2126 26.141724" fill-rule="evenodd"/><path fill="#000000" fill-opacity="0.0" d="m63.854332 566.2021l25.165352 -27.055115" fill-rule="evenodd"/><path stroke="#000000" stroke-width="1.0" stroke-linejoin="round" stroke-linecap="butt" d="m63.854332 566.2021l25.165352 -27.055115" fill-rule="evenodd"/><path fill="#000000" fill-opacity="0.0" d="m111.18635 63.66142l52.944893 0l0 88.81889l-52.944893 0z" fill-rule="evenodd"/><path stroke="#000000" stroke-width="1.0" stroke-linejoin="round" stroke-linecap="butt" d="m111.18635 63.66142l52.944893 0l0 88.81889l-52.944893 0z" fill-rule="evenodd"/><path fill="#000000" fill-opacity="0.0" d="m112.89501 64.514435l27.212593 26.141731" fill-rule="evenodd"/><path stroke="#000000" stroke-width="1.0" stroke-linejoin="round" stroke-linecap="butt" d="m112.89501 64.514435l27.212593 26.141731" fill-rule="evenodd"/><path fill="#000000" fill-opacity="0.0" d="m139.3727 90.99213l25.16536 -27.055119" fill-rule="evenodd"/><path stroke="#000000" stroke-width="1.0" stroke-linejoin="round" stroke-linecap="butt" d="m139.3727 90.99213l25.16536 -27.055119" fill-rule="evenodd"/><path fill="#000000" fill-opacity="0.0" d="m110.98294 184.2441l52.944885 0l0 88.81889l-52.944885 0z" fill-rule="evenodd"/><path stroke="#000000" stroke-width="1.0" stroke-linejoin="round" stroke-linecap="butt" d="m110.98294 184.2441l52.944885 0l0 88.81889l-52.944885 0z" fill-rule="evenodd"/><path fill="#000000" fill-opacity="0.0" d="m112.691605 185.0971l27.2126 26.141739" fill-rule="evenodd"/><path stroke="#000000" stroke-width="1.0" stroke-linejoin="round" stroke-linecap="butt" d="m112.691605 185.0971l27.2126 26.141739" fill-rule="evenodd"/><path fill="#000000" fill-opacity="0.0" d="m139.1693 211.5748l25.165344 -27.055115" fill-rule="evenodd"/><path stroke="#000000" stroke-width="1.0" stroke-linejoin="round" stroke-linecap="butt" d="m139.1693 211.5748l25.165344 -27.055115" fill-rule="evenodd"/><path fill="#000000" fill-opacity="0.0" d="m110.98163 304.82678l52.944885 0l0 88.81888l-52.944885 0z" fill-rule="evenodd"/><path stroke="#000000" stroke-width="1.0" stroke-linejoin="round" stroke-linecap="butt" d="m110.98163 304.82678l52.944885 0l0 88.81888l-52.944885 0z" fill-rule="evenodd"/><path fill="#000000" fill-opacity="0.0" d="m112.69029 305.67978l27.2126 26.141754" fill-rule="evenodd"/><path stroke="#000000" stroke-width="1.0" stroke-linejoin="round" stroke-linecap="butt" d="m112.69029 305.67978l27.2126 26.141754" fill-rule="evenodd"/><path fill="#000000" fill-opacity="0.0" d="m139.16798 332.15747l25.165344 -27.055115" fill-rule="evenodd"/><path stroke="#000000" stroke-width="1.0" stroke-linejoin="round" stroke-linecap="butt" d="m139.16798 332.15747l25.165344 -27.055115" fill-rule="evenodd"/><path fill="#000000" fill-opacity="0.0" d="m110.98294 538.8714l52.944885 0l0 88.81891l-52.944885 0z" fill-rule="evenodd"/><path stroke="#000000" stroke-width="1.0" stroke-linejoin="round" stroke-linecap="butt" d="m110.98294 538.8714l52.944885 0l0 88.81891l-52.944885 0z" fill-rule="evenodd"/><path fill="#000000" fill-opacity="0.0" d="m112.691605 539.7244l27.2126 26.141724" fill-rule="evenodd"/><path stroke="#000000" stroke-width="1.0" stroke-linejoin="round" stroke-linecap="butt" d="m112.691605 539.7244l27.2126 26.141724" fill-rule="evenodd"/><path fill="#000000" fill-opacity="0.0" d="m139.1693 566.2021l25.165344 -27.055115" fill-rule="evenodd"/><path stroke="#000000" stroke-width="1.0" stroke-linejoin="round" stroke-linecap="butt" d="m139.1693 566.2021l25.165344 -27.055115" fill-rule="evenodd"/><path fill="#000000" fill-opacity="0.0" d="m250.82677 63.66142l52.9449 0l0 88.81889l-52.9449 0z" fill-rule="evenodd"/><path stroke="#000000" stroke-width="1.0" stroke-linejoin="round" stroke-linecap="butt" d="m250.82677 63.66142l52.9449 0l0 88.81889l-52.9449 0z" fill-rule="evenodd"/><path fill="#000000" fill-opacity="0.0" d="m252.53543 64.514435l27.212585 26.141731" fill-rule="evenodd"/><path stroke="#000000" stroke-width="1.0" stroke-linejoin="round" stroke-linecap="butt" d="m252.53543 64.514435l27.212585 26.141731" fill-rule="evenodd"/><path fill="#000000" fill-opacity="0.0" d="m279.01312 90.99213l25.165344 -27.055119" fill-rule="evenodd"/><path stroke="#000000" stroke-width="1.0" stroke-linejoin="round" stroke-linecap="butt" d="m279.01312 90.99213l25.165344 -27.055119" fill-rule="evenodd"/><path fill="#000000" fill-opacity="0.0" d="m250.62335 184.2441l52.944885 0l0 88.81889l-52.944885 0z" fill-rule="evenodd"/><path stroke="#000000" stroke-width="1.0" stroke-linejoin="round" stroke-linecap="butt" d="m250.62335 184.2441l52.944885 0l0 88.81889l-52.944885 0z" fill-rule="evenodd"/><path fill="#000000" fill-opacity="0.0" d="m252.33202 185.0971l27.2126 26.141739" fill-rule="evenodd"/><path stroke="#000000" stroke-width="1.0" stroke-linejoin="round" stroke-linecap="butt" d="m252.33202 185.0971l27.2126 26.141739" fill-rule="evenodd"/><path fill="#000000" fill-opacity="0.0" d="m278.80972 211.5748l25.165344 -27.055115" fill-rule="evenodd"/><path stroke="#000000" stroke-width="1.0" stroke-linejoin="round" stroke-linecap="butt" d="m278.80972 211.5748l25.165344 -27.055115" fill-rule="evenodd"/><path fill="#000000" fill-opacity="0.0" d="m250.62204 304.82678l52.944885 0l0 88.81888l-52.944885 0z" fill-rule="evenodd"/><path stroke="#000000" stroke-width="1.0" stroke-linejoin="round" stroke-linecap="butt" d="m250.62204 304.82678l52.944885 0l0 88.81888l-52.944885 0z" fill-rule="evenodd"/><path fill="#000000" fill-opacity="0.0" d="m252.3307 305.67978l27.2126 26.141754" fill-rule="evenodd"/><path stroke="#000000" stroke-width="1.0" stroke-linejoin="round" stroke-linecap="butt" d="m252.3307 305.67978l27.2126 26.141754" fill-rule="evenodd"/><path fill="#000000" fill-opacity="0.0" d="m278.8084 332.15747l25.165344 -27.055115" fill-rule="evenodd"/><path stroke="#000000" stroke-width="1.0" stroke-linejoin="round" stroke-linecap="butt" d="m278.8084 332.15747l25.165344 -27.055115" fill-rule="evenodd"/><path fill="#000000" fill-opacity="0.0" d="m250.62335 538.8714l52.944885 0l0 88.81891l-52.944885 0z" fill-rule="evenodd"/><path stroke="#000000" stroke-width="1.0" stroke-linejoin="round" stroke-linecap="butt" d="m250.62335 538.8714l52.944885 0l0 88.81891l-52.944885 0z" fill-rule="evenodd"/><path fill="#000000" fill-opacity="0.0" d="m252.33202 539.7244l27.2126 26.141724" fill-rule="evenodd"/><path stroke="#000000" stroke-width="1.0" stroke-linejoin="round" stroke-linecap="butt" d="m252.33202 539.7244l27.2126 26.141724" fill-rule="evenodd"/><path fill="#000000" fill-opacity="0.0" d="m278.80972 566.2021l25.165344 -27.055115" fill-rule="evenodd"/><path stroke="#000000" stroke-width="1.0" stroke-linejoin="round" stroke-linecap="butt" d="m278.80972 566.2021l25.165344 -27.055115" fill-rule="evenodd"/><path fill="#000000" fill-opacity="0.0" d="m62.343834 152.48032l-0.1889801 31.779526" fill-rule="evenodd"/><path stroke="#000000" stroke-width="1.0" stroke-linejoin="round" stroke-linecap="butt" d="m62.343834 152.48032l-0.1889801 31.779526" fill-rule="evenodd"/><path fill="#000000" fill-opacity="0.0" d="m62.14042 273.063l0 31.779541" fill-rule="evenodd"/><path stroke="#000000" stroke-width="1.0" stroke-linejoin="round" stroke-linecap="butt" d="m62.14042 273.063l0 31.779541" fill-rule="evenodd"/><path fill="#000000" fill-opacity="0.0" d="m137.6588 152.48032l-0.1889801 31.779526" fill-rule="evenodd"/><path stroke="#000000" stroke-width="1.0" stroke-linejoin="round" stroke-linecap="butt" d="m137.6588 152.48032l-0.1889801 31.779526" fill-rule="evenodd"/><path fill="#000000" fill-opacity="0.0" d="m137.45538 273.063l0 31.779541" fill-rule="evenodd"/><path stroke="#000000" stroke-width="1.0" stroke-linejoin="round" stroke-linecap="butt" d="m137.45538 273.063l0 31.779541" fill-rule="evenodd"/><path fill="#000000" fill-opacity="0.0" d="m277.29922 152.48032l-0.18899536 31.779526" fill-rule="evenodd"/><path stroke="#000000" stroke-width="1.0" stroke-linejoin="round" stroke-linecap="butt" d="m277.29922 152.48032l-0.18899536 31.779526" fill-rule="evenodd"/><path fill="#000000" fill-opacity="0.0" d="m277.0958 273.063l0 31.779541" fill-rule="evenodd"/><path stroke="#000000" stroke-width="1.0" stroke-linejoin="round" stroke-linecap="butt" d="m277.0958 273.063l0 31.779541" fill-rule="evenodd"/><path fill="#000000" fill-opacity="0.0" d="m62.343834 63.66142l0 -25.0l75.30709 0l0 25.062992" fill-rule="evenodd"/><path stroke="#000000" stroke-width="2.0" stroke-linejoin="round" stroke-linecap="butt" d="m62.343834 63.66142l0 -25.0l75.30709 0l0 25.062992" fill-rule="evenodd"/><path fill="#000000" fill-opacity="0.0" d="m235.0 38.05512l42.299225 0l0 25.6063" fill-rule="evenodd"/><path stroke="#000000" stroke-width="2.0" stroke-linejoin="round" stroke-linecap="butt" d="m235.0 38.05512l42.299225 0l0 25.6063" fill-rule="evenodd"/><path fill="#000000" fill-opacity="0.0" d="m62.14042 627.6903l0 25.0l75.30709 0l0 -24.937012" fill-rule="evenodd"/><path stroke="#000000" stroke-width="2.0" stroke-linejoin="round" stroke-linecap="butt" d="m62.14042 627.6903l0 25.0l75.30709 0l0 -24.937012" fill-rule="evenodd"/><path fill="#000000" fill-opacity="0.0" d="m232.46588 654.20996l44.629913 0l0 -26.519653" fill-rule="evenodd"/><path stroke="#000000" stroke-width="2.0" stroke-linejoin="round" stroke-linecap="butt" d="m232.46588 654.20996l44.629913 0l0 -26.519653" fill-rule="evenodd"/><path fill="#000000" fill-opacity="0.0" d="m62.139107 393.64566l0 145.22836" fill-rule="evenodd"/><path stroke="#000000" stroke-width="2.0" stroke-linejoin="round" stroke-linecap="butt" stroke-dasharray="2.0,6.0" d="m62.139107 393.64566l0 145.22836" fill-rule="evenodd"/><path fill="#000000" fill-opacity="0.0" d="m137.45407 393.64566l0 145.22836" fill-rule="evenodd"/><path stroke="#000000" stroke-width="2.0" stroke-linejoin="round" stroke-linecap="butt" stroke-dasharray="2.0,6.0" d="m137.45407 393.64566l0 145.22836" fill-rule="evenodd"/><path fill="#000000" fill-opacity="0.0" d="m277.09448 393.64566l0 145.22836" fill-rule="evenodd"/><path stroke="#000000" stroke-width="2.0" stroke-linejoin="round" stroke-linecap="butt" stroke-dasharray="2.0,6.0" d="m277.09448 393.64566l0 145.22836" fill-rule="evenodd"/><path fill="#000000" fill-opacity="0.0" d="m64.32809 38.427822l-49.291344 0" fill-rule="evenodd"/><path stroke="#000000" stroke-width="2.0" stroke-linejoin="round" stroke-linecap="butt" d="m64.32809 38.427822l-49.291344 0" fill-rule="evenodd"/><path fill="#000000" fill-opacity="0.0" d="m63.490814 653.29395l-45.95276 -0.85040283" fill-rule="evenodd"/><path stroke="#000000" stroke-width="2.0" stroke-linejoin="round" stroke-linecap="butt" d="m63.490814 653.29395l-45.95276 -0.85040283" fill-rule="evenodd"/><path fill="#000000" fill-opacity="0.0" d="m244.28084 287.24146l68.220474 0l0 122.299225l-68.220474 0z" fill-rule="evenodd"/><path stroke="#000000" stroke-width="4.0" stroke-linejoin="round" stroke-linecap="butt" stroke-dasharray="4.0,12.0" d="m244.28084 287.24146l68.220474 0l0 122.299225l-68.220474 0z" fill-rule="evenodd"/><path fill="#000000" fill-opacity="0.0" d="m468.98688 208.06036l45.95276 0l0 65.00787l-45.95276 0z" fill-rule="evenodd"/><path stroke="#000000" stroke-width="1.0" stroke-linejoin="round" stroke-linecap="butt" d="m468.98688 208.06036l45.95276 0l0 65.00787l-45.95276 0z" fill-rule="evenodd"/><path fill="#000000" fill-opacity="0.0" d="m529.344 248.97437l11.422546 -20.59018l11.422607 20.59018z" fill-rule="evenodd"/><path stroke="#000000" stroke-width="1.0" stroke-linejoin="round" stroke-linecap="butt" d="m529.344 248.97437l11.422546 -20.59018l11.422607 20.59018z" fill-rule="evenodd"/><path fill="#000000" fill-opacity="0.0" d="m540.76654 228.38419l5.699707 10.298935" fill-rule="evenodd"/><path stroke="#000000" stroke-width="1.0" stroke-linejoin="round" stroke-linecap="butt" d="m540.76654 228.38419l5.699707 10.298935" fill-rule="evenodd"/><path fill="#000000" fill-opacity="0.0" d="m529.1392 228.27162l23.254944 0" fill-rule="evenodd"/><path stroke="#000000" stroke-width="1.0" stroke-linejoin="round" stroke-linecap="butt" d="m529.1392 228.27162l23.254944 0" fill-rule="evenodd"/><path fill="#000000" fill-opacity="0.0" d="m468.98688 322.54724l45.95276 0l0 65.00787l-45.95276 0z" fill-rule="evenodd"/><path stroke="#000000" stroke-width="1.0" stroke-linejoin="round" stroke-linecap="butt" d="m468.98688 322.54724l45.95276 0l0 65.00787l-45.95276 0z" fill-rule="evenodd"/><path fill="#000000" fill-opacity="0.0" d="m529.344 363.46164l11.423523 -20.590576l11.423462 20.590576z" fill-rule="evenodd"/><path stroke="#000000" stroke-width="1.0" stroke-linejoin="round" stroke-linecap="butt" d="m529.344 363.46164l11.423523 -20.590576l11.423462 20.590576z" fill-rule="evenodd"/><path fill="#000000" fill-opacity="0.0" d="m540.7675 342.87106l5.699646 10.29892" fill-rule="evenodd"/><path stroke="#000000" stroke-width="1.0" stroke-linejoin="round" stroke-linecap="butt" d="m540.7675 342.87106l5.699646 10.29892" fill-rule="evenodd"/><path fill="#000000" fill-opacity="0.0" d="m529.1392 342.75848l23.254944 0" fill-rule="evenodd"/><path stroke="#000000" stroke-width="1.0" stroke-linejoin="round" stroke-linecap="butt" d="m529.1392 342.75848l23.254944 0" fill-rule="evenodd"/><path fill="#000000" fill-opacity="0.0" d="m468.98688 437.03674l45.95276 0l0 65.00787l-45.95276 0z" fill-rule="evenodd"/><path stroke="#000000" stroke-width="1.0" stroke-linejoin="round" stroke-linecap="butt" d="m468.98688 437.03674l45.95276 0l0 65.00787l-45.95276 0z" fill-rule="evenodd"/><path fill="#000000" fill-opacity="0.0" d="m529.344 477.95114l11.423523 -20.590576l11.423462 20.590576z" fill-rule="evenodd"/><path stroke="#000000" stroke-width="1.0" stroke-linejoin="round" stroke-linecap="butt" d="m529.344 477.95114l11.423523 -20.590576l11.423462 20.590576z" fill-rule="evenodd"/><path fill="#000000" fill-opacity="0.0" d="m540.7675 457.36057l5.699646 10.29892" fill-rule="evenodd"/><path stroke="#000000" stroke-width="1.0" stroke-linejoin="round" stroke-linecap="butt" d="m540.7675 457.36057l5.699646 10.29892" fill-rule="evenodd"/><path fill="#000000" fill-opacity="0.0" d="m529.1392 457.248l23.254944 0" fill-rule="evenodd"/><path stroke="#000000" stroke-width="1.0" stroke-linejoin="round" stroke-linecap="butt" d="m529.1392 457.248l23.254944 0" fill-rule="evenodd"/><path fill="#000000" fill-opacity="0.0" d="m540.76654 248.97437l0 93.88977" fill-rule="evenodd"/><path stroke="#000000" stroke-width="1.0" stroke-linejoin="round" stroke-linecap="butt" d="m540.76654 248.97437l0 93.88977" fill-rule="evenodd"/><path fill="#000000" fill-opacity="0.0" d="m540.7675 363.46164l0 93.88977" fill-rule="evenodd"/><path stroke="#000000" stroke-width="1.0" stroke-linejoin="round" stroke-linecap="butt" d="m540.7675 363.46164l0 93.88977" fill-rule="evenodd"/><path fill="#000000" fill-opacity="0.0" d="m491.96326 273.06824l0 49.480316" fill-rule="evenodd"/><path stroke="#000000" stroke-width="1.0" stroke-linejoin="round" stroke-linecap="butt" d="m491.96326 273.06824l0 49.480316" fill-rule="evenodd"/><path fill="#000000" fill-opacity="0.0" d="m491.96326 387.5551l0 49.480316" fill-rule="evenodd"/><path stroke="#000000" stroke-width="1.0" stroke-linejoin="round" stroke-linecap="butt" d="m491.96326 387.5551l0 49.480316" fill-rule="evenodd"/><path fill="#000000" fill-opacity="0.0" d="m491.96326 502.04462l0 24.999939l48.81891 0l0 -49.09442" fill-rule="evenodd"/><path stroke="#000000" stroke-width="1.0" stroke-linejoin="round" stroke-linecap="butt" d="m491.96326 502.04462l0 24.999939l48.81891 0l0 -49.09442" fill-rule="evenodd"/><path fill="#000000" fill-opacity="0.0" d="m491.96326 208.06036l0 -25.0l48.81891 0l0 45.314972" fill-rule="evenodd"/><path stroke="#000000" stroke-width="1.0" stroke-linejoin="round" stroke-linecap="butt" d="m491.96326 208.06036l0 -25.0l48.81891 0l0 45.314972" fill-rule="evenodd"/><path fill="#000000" fill-opacity="0.0" d="m491.96326 273.06824l0 22.614166l49.44879 0" fill-rule="evenodd"/><path stroke="#000000" stroke-width="1.0" stroke-linejoin="round" stroke-linecap="butt" d="m491.96326 273.06824l0 22.614166l49.44879 0" fill-rule="evenodd"/><path fill="#000000" fill-opacity="0.0" d="m491.96326 387.5551l0 24.346466l49.44879 0" fill-rule="evenodd"/><path stroke="#000000" stroke-width="1.0" stroke-linejoin="round" stroke-linecap="butt" d="m491.96326 387.5551l0 24.346466l49.44879 0" fill-rule="evenodd"/><path fill="#000000" fill-opacity="0.0" d="m457.85303 308.1076l108.0 0l0 93.88977l-108.0 0z" fill-rule="evenodd"/><path stroke="#000000" stroke-width="4.0" stroke-linejoin="round" stroke-linecap="butt" stroke-dasharray="4.0,12.0" d="m457.85303 308.1076l108.0 0l0 93.88977l-108.0 0z" fill-rule="evenodd"/><path fill="#cfe2f3" d="m711.2047 193.49092l0 0c2.925293 0 5.296692 -2.3714142 5.296692 -5.296692l21.186157 0l0 0c0 2.9252777 2.371399 5.296692 5.296692 5.296692l0 21.186142l0 0c-2.925293 0 -5.296692 2.3714142 -5.296692 5.296692l-21.186157 0c0 -2.9252777 -2.371399 -5.296692 -5.296692 -5.296692z" fill-rule="evenodd"/><path stroke="#000000" stroke-width="1.0" stroke-linejoin="round" stroke-linecap="butt" d="m711.2047 193.49092l0 0c2.925293 0 5.296692 -2.3714142 5.296692 -5.296692l21.186157 0l0 0c0 2.9252777 2.371399 5.296692 5.296692 5.296692l0 21.186142l0 0c-2.925293 0 -5.296692 2.3714142 -5.296692 5.296692l-21.186157 0c0 -2.9252777 -2.371399 -5.296692 -5.296692 -5.296692z" fill-rule="evenodd"/><path fill="#cfe2f3" d="m711.2047 238.13133l0 0c2.925293 0 5.296692 -2.371399 5.296692 -5.296692l21.186157 0l0 0c0 2.925293 2.371399 5.296692 5.296692 5.296692l0 21.186142l0 0c-2.925293 0 -5.296692 2.3714294 -5.296692 5.296692l-21.186157 0c0 -2.9252625 -2.371399 -5.296692 -5.296692 -5.296692z" fill-rule="evenodd"/><path stroke="#000000" stroke-width="1.0" stroke-linejoin="round" stroke-linecap="butt" d="m711.2047 238.13133l0 0c2.925293 0 5.296692 -2.371399 5.296692 -5.296692l21.186157 0l0 0c0 2.925293 2.371399 5.296692 5.296692 5.296692l0 21.186142l0 0c-2.925293 0 -5.296692 2.3714294 -5.296692 5.296692l-21.186157 0c0 -2.9252625 -2.371399 -5.296692 -5.296692 -5.296692z" fill-rule="evenodd"/><path fill="#cfe2f3" d="m711.2047 282.77176l0 0c2.925293 0 5.296692 -2.371399 5.296692 -5.296692l21.186157 0l0 0c0 2.925293 2.371399 5.296692 5.296692 5.296692l0 21.186127l0 0c-2.925293 0 -5.296692 2.3714294 -5.296692 5.2967224l-21.186157 0c0 -2.925293 -2.371399 -5.2967224 -5.296692 -5.2967224z" fill-rule="evenodd"/><path stroke="#000000" stroke-width="1.0" stroke-linejoin="round" stroke-linecap="butt" d="m711.2047 282.77176l0 0c2.925293 0 5.296692 -2.371399 5.296692 -5.296692l21.186157 0l0 0c0 2.925293 2.371399 5.296692 5.296692 5.296692l0 21.186127l0 0c-2.925293 0 -5.296692 2.3714294 -5.296692 5.2967224l-21.186157 0c0 -2.925293 -2.371399 -5.2967224 -5.296692 -5.2967224z" fill-rule="evenodd"/><path fill="#cfe2f3" d="m711.2047 327.41086l0 0c2.925293 0 5.296692 -2.371399 5.296692 -5.296692l21.186157 0l0 0c0 2.925293 2.371399 5.296692 5.296692 5.296692l0 21.186157l0 0c-2.925293 0 -5.296692 2.371399 -5.296692 5.296692l-21.186157 0c0 -2.925293 -2.371399 -5.296692 -5.296692 -5.296692z" fill-rule="evenodd"/><path stroke="#000000" stroke-width="1.0" stroke-linejoin="round" stroke-linecap="butt" d="m711.2047 327.41086l0 0c2.925293 0 5.296692 -2.371399 5.296692 -5.296692l21.186157 0l0 0c0 2.925293 2.371399 5.296692 5.296692 5.296692l0 21.186157l0 0c-2.925293 0 -5.296692 2.371399 -5.296692 5.296692l-21.186157 0c0 -2.925293 -2.371399 -5.296692 -5.296692 -5.296692z" fill-rule="evenodd"/><path fill="#cfe2f3" d="m711.2047 372.0526l0 0c2.925293 0 5.296692 -2.3714294 5.296692 -5.296692l21.186157 0l0 0c0 2.9252625 2.371399 5.296692 5.296692 5.296692l0 21.186127l0 0c-2.925293 0 -5.296692 2.371399 -5.296692 5.296692l-21.186157 0c0 -2.925293 -2.371399 -5.296692 -5.296692 -5.296692z" fill-rule="evenodd"/><path stroke="#000000" stroke-width="1.0" stroke-linejoin="round" stroke-linecap="butt" d="m711.2047 372.0526l0 0c2.925293 0 5.296692 -2.3714294 5.296692 -5.296692l21.186157 0l0 0c0 2.9252625 2.371399 5.296692 5.296692 5.296692l0 21.186127l0 0c-2.925293 0 -5.296692 2.371399 -5.296692 5.296692l-21.186157 0c0 -2.925293 -2.371399 -5.296692 -5.296692 -5.296692z" fill-rule="evenodd"/><path fill="#cfe2f3" d="m711.2047 527.3597l0 0c2.925293 0 5.296692 -2.371399 5.296692 -5.296692l21.186157 0l0 0c0 2.925293 2.371399 5.296692 5.296692 5.296692l0 21.186157l0 0c-2.925293 0 -5.296692 2.371399 -5.296692 5.296692l-21.186157 0c0 -2.925293 -2.371399 -5.296692 -5.296692 -5.296692z" fill-rule="evenodd"/><path stroke="#000000" stroke-width="1.0" stroke-linejoin="round" stroke-linecap="butt" d="m711.2047 527.3597l0 0c2.925293 0 5.296692 -2.371399 5.296692 -5.296692l21.186157 0l0 0c0 2.925293 2.371399 5.296692 5.296692 5.296692l0 21.186157l0 0c-2.925293 0 -5.296692 2.371399 -5.296692 5.296692l-21.186157 0c0 -2.925293 -2.371399 -5.296692 -5.296692 -5.296692z" fill-rule="evenodd"/><path fill="#000000" fill-opacity="0.0" d="m727.0945 219.97375l0 12.850388" fill-rule="evenodd"/><path stroke="#000000" stroke-width="1.0" stroke-linejoin="round" stroke-linecap="butt" d="m727.0945 219.97375l0 12.850388" fill-rule="evenodd"/><path fill="#000000" fill-opacity="0.0" d="m727.0945 264.61417l0 12.850403" fill-rule="evenodd"/><path stroke="#000000" stroke-width="1.0" stroke-linejoin="round" stroke-linecap="butt" d="m727.0945 264.61417l0 12.850403" fill-rule="evenodd"/><path fill="#000000" fill-opacity="0.0" d="m727.0945 309.2546l0 12.850372" fill-rule="evenodd"/><path stroke="#000000" stroke-width="1.0" stroke-linejoin="round" stroke-linecap="butt" d="m727.0945 309.2546l0 12.850372" fill-rule="evenodd"/><path fill="#000000" fill-opacity="0.0" d="m727.0945 353.90552l0 12.850403" fill-rule="evenodd"/><path stroke="#000000" stroke-width="1.0" stroke-linejoin="round" stroke-linecap="butt" d="m727.0945 353.90552l0 12.850403" fill-rule="evenodd"/><path fill="#000000" fill-opacity="0.0" d="m727.0945 398.53543l0 123.52756" fill-rule="evenodd"/><path stroke="#000000" stroke-width="2.0" stroke-linejoin="round" stroke-linecap="butt" stroke-dasharray="2.0,6.0" d="m727.0945 398.53543l0 123.52756" fill-rule="evenodd"/><path fill="#000000" fill-opacity="0.0" d="m782.5067 348.35797l11.423523 -20.590576l11.423523 20.590576z" fill-rule="evenodd"/><path stroke="#000000" stroke-width="1.0" stroke-linejoin="round" stroke-linecap="butt" d="m782.5067 348.35797l11.423523 -20.590576l11.423523 20.590576z" fill-rule="evenodd"/><path fill="#000000" fill-opacity="0.0" d="m793.93024 327.7674l5.699646 10.29892" fill-rule="evenodd"/><path stroke="#000000" stroke-width="1.0" stroke-linejoin="round" stroke-linecap="butt" d="m793.93024 327.7674l5.699646 10.29892" fill-rule="evenodd"/><path fill="#000000" fill-opacity="0.0" d="m782.302 327.65482l23.254883 0" fill-rule="evenodd"/><path stroke="#000000" stroke-width="1.0" stroke-linejoin="round" stroke-linecap="butt" d="m782.302 327.65482l23.254883 0" fill-rule="evenodd"/><path fill="#000000" fill-opacity="0.0" d="m727.0945 188.19423l0 -25.00061l66.834656 0l0 164.55968" fill-rule="evenodd"/><path stroke="#000000" stroke-width="1.0" stroke-linejoin="round" stroke-linecap="butt" d="m727.0945 188.19423l0 -25.00061l66.834656 0l0 164.55968" fill-rule="evenodd"/><path fill="#000000" fill-opacity="0.0" d="m793.93024 348.35797l0 230.48523l-66.834656 0l0 -25.004883" fill-rule="evenodd"/><path stroke="#000000" stroke-width="1.0" stroke-linejoin="round" stroke-linecap="butt" d="m793.93024 348.35797l0 230.48523l-66.834656 0l0 -25.004883" fill-rule="evenodd"/><path fill="#000000" fill-opacity="0.0" d="m88.89501 678.4829l100.75591 0l0 31.779541l-100.75591 0z" fill-rule="evenodd"/><path fill="#000000" d="m99.33251 705.40295l0 -13.359375l5.046875 0q1.328125 0 2.03125 0.125q0.96875 0.171875 1.640625 0.640625q0.671875 0.453125 1.078125 1.28125q0.40625 0.828125 0.40625 1.828125q0 1.703125 -1.09375 2.890625q-1.078125 1.171875 -3.921875 1.171875l-3.421875 0l0 5.421875l-1.765625 0zm1.765625 -7.0l3.453125 0q1.71875 0 2.4375 -0.640625q0.71875 -0.640625 0.71875 -1.796875q0 -0.84375 -0.421875 -1.4375q-0.421875 -0.59375 -1.125 -0.78125q-0.4375 -0.125 -1.640625 -0.125l-3.421875 0l0 4.78125zm14.490448 7.0l-5.171875 -13.359375l1.921875 0l3.46875 9.703125q0.421875 1.171875 0.703125 2.1875q0.3125 -1.09375 0.71875 -2.1875l3.609375 -9.703125l1.796875 0l-5.234375 13.359375l-1.8125 0zm13.220634 -4.296875l1.65625 -0.140625q0.125 1.0 0.546875 1.640625q0.4375 0.640625 1.34375 1.046875q0.921875 0.390625 2.0625 0.390625q1.0 0 1.78125 -0.296875q0.78125 -0.296875 1.15625 -0.8125q0.375 -0.53125 0.375 -1.15625q0 -0.625 -0.375 -1.09375q-0.359375 -0.46875 -1.1875 -0.796875q-0.546875 -0.203125 -2.390625 -0.640625q-1.828125 -0.453125 -2.5625 -0.84375q-0.96875 -0.5 -1.4375 -1.234375q-0.46875 -0.75 -0.46875 -1.671875q0 -1.0 0.578125 -1.875q0.578125 -0.890625 1.671875 -1.34375q1.109375 -0.453125 2.453125 -0.453125q1.484375 0 2.609375 0.484375q1.140625 0.46875 1.75 1.40625q0.609375 0.921875 0.65625 2.09375l-1.6875 0.125q-0.140625 -1.265625 -0.9375 -1.90625q-0.78125 -0.65625 -2.3125 -0.65625q-1.609375 0 -2.34375 0.59375q-0.734375 0.59375 -0.734375 1.421875q0 0.71875 0.53125 1.171875q0.5 0.46875 2.65625 0.96875q2.15625 0.484375 2.953125 0.84375q1.171875 0.53125 1.71875 1.359375q0.5625 0.828125 0.5625 1.90625q0 1.0625 -0.609375 2.015625q-0.609375 0.9375 -1.75 1.46875q-1.140625 0.515625 -2.578125 0.515625q-1.8125 0 -3.046875 -0.53125q-1.21875 -0.53125 -1.921875 -1.59375q-0.6875 -1.0625 -0.71875 -2.40625zm16.412323 2.828125l0.234375 1.453125q-0.6875 0.140625 -1.234375 0.140625q-0.890625 0 -1.390625 -0.28125q-0.484375 -0.28125 -0.6875 -0.734375q-0.203125 -0.46875 -0.203125 -1.9375l0 -5.578125l-1.203125 0l0 -1.265625l1.203125 0l0 -2.390625l1.625 -0.984375l0 3.375l1.65625 0l0 1.265625l-1.65625 0l0 5.671875q0 0.6875 0.078125 0.890625q0.09375 0.203125 0.28125 0.328125q0.203125 0.109375 0.578125 0.109375q0.265625 0 0.71875 -0.0625zm1.5895538 1.46875l0 -9.671875l1.46875 0l0 1.46875q0.5625 -1.03125 1.03125 -1.359375q0.484375 -0.328125 1.0625 -0.328125q0.828125 0 1.6875 0.53125l-0.5625 1.515625q-0.609375 -0.359375 -1.203125 -0.359375q-0.546875 0 -0.96875 0.328125q-0.421875 0.328125 -0.609375 0.890625q-0.28125 0.875 -0.28125 1.921875l0 5.0625l-1.625 0zm6.228302 -11.46875l0 -1.890625l1.640625 0l0 1.890625l-1.640625 0zm0 11.46875l0 -9.671875l1.640625 0l0 9.671875l-1.640625 0zm4.144821 0l0 -9.671875l1.46875 0l0 1.375q1.0625 -1.59375 3.078125 -1.59375q0.875 0 1.609375 0.3125q0.734375 0.3125 1.09375 0.828125q0.375 0.5 0.515625 1.203125q0.09375 0.453125 0.09375 1.59375l0 5.953125l-1.640625 0l0 -5.890625q0 -1.0 -0.203125 -1.484375q-0.1875 -0.5 -0.671875 -0.796875q-0.484375 -0.296875 -1.140625 -0.296875q-1.046875 0 -1.8125 0.671875q-0.75 0.65625 -0.75 2.515625l0 5.28125l-1.640625 0zm10.063217 0.796875l1.59375 0.234375q0.109375 0.75 0.5625 1.078125q0.609375 0.453125 1.671875 0.453125q1.140625 0 1.75 -0.453125q0.625 -0.453125 0.84375 -1.265625q0.125 -0.5 0.109375 -2.109375q-1.0625 1.265625 -2.671875 1.265625q-2.0 0 -3.09375 -1.4375q-1.09375 -1.4375 -1.09375 -3.453125q0 -1.390625 0.5 -2.5625q0.515625 -1.171875 1.453125 -1.796875q0.953125 -0.640625 2.25 -0.640625q1.703125 0 2.8125 1.375l0 -1.15625l1.515625 0l0 8.359375q0 2.265625 -0.46875 3.203125q-0.453125 0.9375 -1.453125 1.484375q-0.984375 0.546875 -2.453125 0.546875q-1.71875 0 -2.796875 -0.78125q-1.0625 -0.765625 -1.03125 -2.34375zm1.359375 -5.8125q0 1.90625 0.75 2.78125q0.765625 0.875 1.90625 0.875q1.125 0 1.890625 -0.859375q0.765625 -0.875 0.765625 -2.734375q0 -1.78125 -0.796875 -2.671875q-0.78125 -0.90625 -1.890625 -0.90625q-1.09375 0 -1.859375 0.890625q-0.765625 0.875 -0.765625 2.625z" fill-rule="nonzero"/><path fill="#000000" fill-opacity="0.0" d="m137.6588 63.66142l0 -24.283466l102.45668 0" fill-rule="evenodd"/><path stroke="#000000" stroke-width="2.0" stroke-linejoin="round" stroke-linecap="butt" stroke-dasharray="2.0,6.0" d="m137.6588 63.66142l0 -24.283466l102.45668 0" fill-rule="evenodd"/><path fill="#000000" fill-opacity="0.0" d="m237.54987 652.9816l-100.09448 0l0 -25.29132" fill-rule="evenodd"/><path stroke="#000000" stroke-width="2.0" stroke-linejoin="round" stroke-linecap="butt" stroke-dasharray="2.0,6.0" d="m237.54987 652.9816l-100.09448 0l0 -25.29132" fill-rule="evenodd"/><path fill="#000000" fill-opacity="0.0" d="m97.05774 0l125.38583 0l0 49.102364l-125.38583 0z" fill-rule="evenodd"/><path fill="#000000" d="m107.49524 26.919998l0 -13.359375l5.046875 0q1.328125 0 2.03125 0.125q0.96875 0.171875 1.640625 0.640625q0.671875 0.453125 1.078125 1.28125q0.40625 0.828125 0.40625 1.828125q0 1.703125 -1.09375 2.890625q-1.078125 1.171875 -3.921875 1.171875l-3.421875 0l0 5.421875l-1.765625 0zm1.765625 -7.0l3.453125 0q1.71875 0 2.4375 -0.640625q0.71875 -0.640625 0.71875 -1.796875q0 -0.84375 -0.421875 -1.4375q-0.421875 -0.59375 -1.125 -0.78125q-0.4375 -0.125 -1.640625 -0.125l-3.421875 0l0 4.78125zm14.490448 7.0l-5.171875 -13.359375l1.921875 0l3.46875 9.703125q0.421875 1.171875 0.703125 2.1875q0.3125 -1.09375 0.71875 -2.1875l3.609375 -9.703125l1.796875 0l-5.234375 13.359375l-1.8125 0zm12.345627 0l5.125 -13.359375l1.90625 0l5.46875 13.359375l-2.015625 0l-1.546875 -4.046875l-5.59375 0l-1.46875 4.046875l-1.875 0zm3.859375 -5.484375l4.53125 0l-1.40625 -3.703125q-0.625 -1.6875 -0.9375 -2.765625q-0.265625 1.28125 -0.71875 2.546875l-1.46875 3.921875zm9.834198 5.484375l0 -9.671875l1.46875 0l0 1.46875q0.5625 -1.03125 1.03125 -1.359375q0.484375 -0.328125 1.0625 -0.328125q0.828125 0 1.6875 0.53125l-0.5625 1.515625q-0.609375 -0.359375 -1.203125 -0.359375q-0.546875 0 -0.96875 0.328125q-0.421875 0.328125 -0.609375 0.890625q-0.28125 0.875 -0.28125 1.921875l0 5.0625l-1.625 0zm6.212677 0l0 -9.671875l1.46875 0l0 1.46875q0.5625 -1.03125 1.03125 -1.359375q0.484375 -0.328125 1.0625 -0.328125q0.828125 0 1.6875 0.53125l-0.5625 1.515625q-0.609375 -0.359375 -1.203125 -0.359375q-0.546875 0 -0.96875 0.328125q-0.421875 0.328125 -0.609375 0.890625q-0.28125 0.875 -0.28125 1.921875l0 5.0625l-1.625 0zm12.540802 -1.1875q-0.921875 0.765625 -1.765625 1.09375q-0.828125 0.3125 -1.796875 0.3125q-1.59375 0 -2.453125 -0.78125q-0.859375 -0.78125 -0.859375 -1.984375q0 -0.71875 0.328125 -1.296875q0.328125 -0.59375 0.84375 -0.9375q0.53125 -0.359375 1.1875 -0.546875q0.46875 -0.125 1.453125 -0.25q1.984375 -0.234375 2.921875 -0.5625q0.015625 -0.34375 0.015625 -0.421875q0 -1.0 -0.46875 -1.421875q-0.625 -0.546875 -1.875 -0.546875q-1.15625 0 -1.703125 0.40625q-0.546875 0.40625 -0.8125 1.421875l-1.609375 -0.21875q0.21875 -1.015625 0.71875 -1.640625q0.5 -0.640625 1.453125 -0.984375q0.953125 -0.34375 2.1875 -0.34375q1.25 0 2.015625 0.296875q0.78125 0.28125 1.140625 0.734375q0.375 0.4375 0.515625 1.109375q0.078125 0.421875 0.078125 1.515625l0 2.1875q0 2.28125 0.109375 2.890625q0.109375 0.59375 0.40625 1.15625l-1.703125 0q-0.265625 -0.515625 -0.328125 -1.1875zm-0.140625 -3.671875q-0.890625 0.375 -2.671875 0.625q-1.015625 0.140625 -1.4375 0.328125q-0.421875 0.1875 -0.65625 0.53125q-0.21875 0.34375 -0.21875 0.78125q0 0.65625 0.5 1.09375q0.5 0.4375 1.453125 0.4375q0.9375 0 1.671875 -0.40625q0.75 -0.421875 1.09375 -1.140625q0.265625 -0.5625 0.265625 -1.640625l0 -0.609375zm4.125717 8.578125l-0.1875 -1.53125q0.546875 0.140625 0.9375 0.140625q0.546875 0 0.875 -0.1875q0.328125 -0.171875 0.546875 -0.5q0.15625 -0.25 0.5 -1.21875q0.046875 -0.140625 0.140625 -0.40625l-3.671875 -9.6875l1.765625 0l2.015625 5.59375q0.390625 1.078125 0.703125 2.25q0.28125 -1.125 0.671875 -2.203125l2.078125 -5.640625l1.640625 0l-3.6875 9.828125q-0.59375 1.609375 -0.921875 2.203125q-0.4375 0.8125 -1.0 1.1875q-0.5625 0.375 -1.34375 0.375q-0.484375 0 -1.0625 -0.203125z" fill-rule="nonzero"/><path fill="#000000" fill-opacity="0.0" d="m204.75984 423.71915l102.45668 0l0 38.141754l-102.45668 0z" fill-rule="evenodd"/><path fill="#000000" d="m214.79109 445.51917l0 -9.546875l3.59375 0q0.953125 0 1.453125 0.09375q0.703125 0.125 1.171875 0.453125q0.484375 0.328125 0.765625 0.921875q0.296875 0.59375 0.296875 1.296875q0 1.21875 -0.78125 2.0625q-0.765625 0.84375 -2.796875 0.84375l-2.4375 0l0 3.875l-1.265625 0zm1.265625 -5.0l2.453125 0q1.234375 0 1.75 -0.453125q0.515625 -0.46875 0.515625 -1.28125q0 -0.609375 -0.3125 -1.03125q-0.296875 -0.421875 -0.796875 -0.5625q-0.3125 -0.09375 -1.171875 -0.09375l-2.4375 0l0 3.421875zm10.34288 5.0l-3.6875 -9.546875l1.359375 0l2.484375 6.9375q0.296875 0.828125 0.5 1.5625q0.21875 -0.78125 0.515625 -1.5625l2.578125 -6.9375l1.28125 0l-3.734375 9.546875l-1.296875 0zm9.873993 0l0 -9.546875l3.59375 0q0.953125 0 1.453125 0.09375q0.703125 0.125 1.171875 0.453125q0.484375 0.328125 0.765625 0.921875q0.296875 0.59375 0.296875 1.296875q0 1.21875 -0.78125 2.0625q-0.765625 0.84375 -2.796875 0.84375l-2.4375 0l0 3.875l-1.265625 0zm1.265625 -5.0l2.453125 0q1.234375 0 1.75 -0.453125q0.515625 -0.46875 0.515625 -1.28125q0 -0.609375 -0.3125 -1.03125q-0.296875 -0.421875 -0.796875 -0.5625q-0.3125 -0.09375 -1.171875 -0.09375l-2.4375 0l0 3.421875zm11.983505 4.140625q-0.65625 0.5625 -1.265625 0.796875q-0.59375 0.21875 -1.28125 0.21875q-1.140625 0 -1.75 -0.546875q-0.609375 -0.5625 -0.609375 -1.4375q0 -0.5 0.21875 -0.921875q0.234375 -0.421875 0.609375 -0.671875q0.375 -0.25 0.84375 -0.390625q0.34375 -0.078125 1.046875 -0.171875q1.421875 -0.171875 2.09375 -0.40625q0 -0.234375 0 -0.296875q0 -0.71875 -0.328125 -1.015625q-0.453125 -0.390625 -1.34375 -0.390625q-0.8125 0 -1.21875 0.296875q-0.390625 0.28125 -0.578125 1.015625l-1.140625 -0.15625q0.15625 -0.734375 0.515625 -1.1875q0.359375 -0.453125 1.03125 -0.6875q0.671875 -0.25 1.5625 -0.25q0.890625 0 1.4375 0.203125q0.5625 0.203125 0.8125 0.53125q0.265625 0.3125 0.375 0.796875q0.046875 0.296875 0.046875 1.078125l0 1.5625q0 1.625 0.078125 2.0625q0.078125 0.4375 0.296875 0.828125l-1.21875 0q-0.1875 -0.359375 -0.234375 -0.859375zm-0.09375 -2.609375q-0.640625 0.265625 -1.921875 0.4375q-0.71875 0.109375 -1.015625 0.25q-0.296875 0.125 -0.46875 0.375q-0.15625 0.25 -0.15625 0.546875q0 0.46875 0.34375 0.78125q0.359375 0.3125 1.046875 0.3125q0.671875 0 1.203125 -0.296875q0.53125 -0.296875 0.78125 -0.8125q0.1875 -0.390625 0.1875 -1.171875l0 -0.421875zm2.9906006 3.46875l0 -6.90625l1.0625 0l0 0.984375q0.75 -1.140625 2.1875 -1.140625q0.62501526 0 1.1562653 0.21875q0.53125 0.21875 0.78125 0.59375q0.265625 0.359375 0.375 0.859375q0.0625 0.328125 0.0625 1.140625l0 4.25l-1.171875 0l0 -4.203125q0 -0.71875 -0.140625 -1.0625q-0.140625 -0.359375 -0.484375 -0.5625q-0.34376526 -0.21875 -0.81251526 -0.21875q-0.75 0 -1.296875 0.46875q-0.546875 0.46875 -0.546875 1.796875l0 3.78125l-1.171875 0zm12.146866 -2.21875l1.203125 0.140625q-0.28125 1.0625 -1.0625 1.65625q-0.765625 0.578125 -1.96875 0.578125q-1.515625 0 -2.40625 -0.9375q-0.890625 -0.9375 -0.890625 -2.609375q0 -1.75 0.890625 -2.703125q0.90625 -0.96875 2.34375 -0.96875q1.390625 0 2.265625 0.9375q0.875 0.9375 0.875 2.65625q0 0.109375 0 0.3125l-5.15625 0q0.0625 1.140625 0.640625 1.75q0.578125 0.59375 1.4375 0.59375q0.65625 0 1.109375 -0.328125q0.453125 -0.34375 0.71875 -1.078125zm-3.84375 -1.90625l3.859375 0q-0.078125 -0.859375 -0.4375 -1.296875q-0.5625 -0.6875 -1.453125 -0.6875q-0.8125 0 -1.359375 0.546875q-0.546875 0.53125 -0.609375 1.4375zm6.5062256 4.125l0 -9.546875l1.171875 0l0 9.546875l-1.171875 0z" fill-rule="nonzero"/><path fill="#000000" fill-opacity="0.0" d="m406.61285 396.40683l94.36221 0l0 31.77951l-94.36221 0z" fill-rule="evenodd"/><path fill="#000000" d="m416.6441 418.20682l0 -9.546875l3.59375 0q0.953125 0 1.453125 0.09375q0.703125 0.125 1.171875 0.453125q0.484375 0.328125 0.765625 0.921875q0.296875 0.59375 0.296875 1.296875q0 1.21875 -0.78125 2.0625q-0.765625 0.84375 -2.796875 0.84375l-2.4375 0l0 3.875l-1.265625 0zm1.265625 -5.0l2.453125 0q1.234375 0 1.75 -0.453125q0.515625 -0.46875 0.515625 -1.28125q0 -0.609375 -0.3125 -1.03125q-0.296875 -0.421875 -0.796875 -0.5625q-0.3125 -0.09375 -1.171875 -0.09375l-2.4375 0l0 3.421875zm10.3428955 5.0l-3.6875 -9.546875l1.359375 0l2.484375 6.9375q0.296875 0.828125 0.5 1.5625q0.21875 -0.78125 0.515625 -1.5625l2.578125 -6.9375l1.28125 0l-3.734375 9.546875l-1.296875 0zm9.717743 0l0 -6.90625l1.046875 0l0 0.96875q0.328125 -0.515625 0.859375 -0.8125q0.546875 -0.3125 1.234375 -0.3125q0.78125 0 1.265625 0.3125q0.484375 0.3125 0.6875 0.890625q0.828125 -1.203125 2.140625 -1.203125q1.03125 0 1.578125 0.578125q0.5625 0.5625 0.5625 1.734375l0 4.75l-1.171875 0l0 -4.359375q0 -0.703125 -0.125 -1.0q-0.109375 -0.3125 -0.40625 -0.5q-0.296875 -0.1875 -0.703125 -0.1875q-0.71875 0 -1.203125 0.484375q-0.484375 0.484375 -0.484375 1.546875l0 4.015625l-1.171875 0l0 -4.484375q0 -0.78125 -0.296875 -1.171875q-0.28125 -0.390625 -0.921875 -0.390625q-0.5 0 -0.921875 0.265625q-0.421875 0.25 -0.609375 0.75q-0.1875 0.5 -0.1875 1.453125l0 3.578125l-1.171875 0zm10.664917 -3.453125q0 -1.921875 1.078125 -2.84375q0.890625 -0.765625 2.171875 -0.765625q1.421875 0 2.328125 0.9375q0.90625 0.921875 0.90625 2.578125q0 1.328125 -0.40625 2.09375q-0.390625 0.765625 -1.15625 1.1875q-0.765625 0.421875 -1.671875 0.421875q-1.453125 0 -2.359375 -0.921875q-0.890625 -0.9375 -0.890625 -2.6875zm1.203125 0q0 1.328125 0.578125 1.984375q0.59375 0.65625 1.46875 0.65625q0.875 0 1.453125 -0.65625q0.578125 -0.671875 0.578125 -2.03125q0 -1.28125 -0.59375 -1.9375q-0.578125 -0.65625 -1.4375 -0.65625q-0.875 0 -1.46875 0.65625q-0.578125 0.65625 -0.578125 1.984375zm11.131226 3.453125l0 -0.875q-0.65625 1.03125 -1.9375 1.03125q-0.8125 0 -1.515625 -0.453125q-0.6875 -0.453125 -1.078125 -1.265625q-0.375 -0.828125 -0.375 -1.890625q0 -1.03125 0.34375 -1.875q0.34375 -0.84375 1.03125 -1.28125q0.703125 -0.453125 1.546875 -0.453125q0.625 0 1.109375 0.265625q0.5 0.25 0.796875 0.671875l0 -3.421875l1.171875 0l0 9.546875l-1.09375 0zm-3.703125 -3.453125q0 1.328125 0.5625 1.984375q0.5625 0.65625 1.328125 0.65625q0.765625 0 1.296875 -0.625q0.53125 -0.625 0.53125 -1.90625q0 -1.421875 -0.546875 -2.078125q-0.546875 -0.671875 -1.34375 -0.671875q-0.78125 0 -1.3125 0.640625q-0.515625 0.625 -0.515625 2.0zm11.162476 3.453125l0 -1.015625q-0.8125 1.171875 -2.1875 1.171875q-0.609375 0 -1.140625 -0.234375q-0.53125 -0.234375 -0.796875 -0.578125q-0.25 -0.359375 -0.359375 -0.875q-0.0625 -0.34375 -0.0625 -1.09375l0 -4.28125l1.171875 0l0 3.828125q0 0.921875 0.0625 1.234375q0.109375 0.46875 0.46875 0.734375q0.359375 0.25 0.890625 0.25q0.515625 0 0.984375 -0.265625q0.46875 -0.265625 0.65625 -0.734375q0.1875 -0.46875 0.1875 -1.34375l0 -3.703125l1.171875 0l0 6.90625l-1.046875 0zm2.8656006 0l0 -9.546875l1.171875 0l0 9.546875l-1.171875 0zm7.71109 -2.21875l1.203125 0.140625q-0.28125 1.0625 -1.0625 1.65625q-0.765625 0.578125 -1.96875 0.578125q-1.515625 0 -2.40625 -0.9375q-0.890625 -0.9375 -0.890625 -2.609375q0 -1.75 0.890625 -2.703125q0.90625 -0.96875 2.34375 -0.96875q1.390625 0 2.265625 0.9375q0.875 0.9375 0.875 2.65625q0 0.109375 0 0.3125l-5.15625 0q0.0625 1.140625 0.640625 1.75q0.578125 0.59375 1.4375 0.59375q0.65625 0 1.109375 -0.328125q0.453125 -0.34375 0.71875 -1.078125zm-3.84375 -1.90625l3.859375 0q-0.078125 -0.859375 -0.4375 -1.296875q-0.5625 -0.6875 -1.453125 -0.6875q-0.8125 0 -1.359375 0.546875q-0.546875 0.53125 -0.609375 1.4375z" fill-rule="nonzero"/><path fill="#000000" fill-opacity="0.0" d="m457.44095 124.32021l100.09451 0l0 38.14173l-100.09451 0z" fill-rule="evenodd"/><path fill="#000000" d="m467.87845 151.2402l0 -13.359375l5.046875 0q1.328125 0 2.03125 0.125q0.96875 0.171875 1.640625 0.640625q0.671875 0.453125 1.078125 1.28125q0.40625 0.828125 0.40625 1.828125q0 1.703125 -1.09375 2.890625q-1.078125 1.171875 -3.921875 1.171875l-3.421875 0l0 5.421875l-1.765625 0zm1.765625 -7.0l3.453125 0q1.71875 0 2.4375 -0.640625q0.71875 -0.640625 0.71875 -1.796875q0 -0.84375 -0.421875 -1.4375q-0.421875 -0.59375 -1.125 -0.78125q-0.4375 -0.125 -1.640625 -0.125l-3.421875 0l0 4.78125zm14.490448 7.0l-5.171875 -13.359375l1.921875 0l3.46875 9.703125q0.421875 1.171875 0.703125 2.1875q0.3125 -1.09375 0.71875 -2.1875l3.609375 -9.703125l1.796875 0l-5.234375 13.359375l-1.8125 0zm13.814362 0l0 -13.359375l5.046875 0q1.328125 0 2.03125 0.125q0.96875 0.171875 1.640625 0.640625q0.671875 0.453125 1.078125 1.28125q0.40625 0.828125 0.40625 1.828125q0 1.703125 -1.09375 2.890625q-1.078125 1.171875 -3.921875 1.171875l-3.421875 0l0 5.421875l-1.765625 0zm1.765625 -7.0l3.453125 0q1.71875 0 2.4375 -0.640625q0.71875 -0.640625 0.71875 -1.796875q0 -0.84375 -0.421875 -1.4375q-0.421875 -0.59375 -1.125 -0.78125q-0.4375 -0.125 -1.640625 -0.125l-3.421875 0l0 4.78125zm16.787323 5.8125q-0.921875 0.765625 -1.765625 1.09375q-0.828125 0.3125 -1.796875 0.3125q-1.59375 0 -2.453125 -0.78125q-0.859375 -0.78125 -0.859375 -1.984375q0 -0.71875 0.328125 -1.296875q0.328125 -0.59375 0.84375 -0.9375q0.53125 -0.359375 1.1875 -0.546875q0.46875 -0.125 1.453125 -0.25q1.984375 -0.234375 2.921875 -0.5625q0.015625 -0.34375 0.015625 -0.421875q0 -1.0 -0.46875 -1.421875q-0.625 -0.546875 -1.875 -0.546875q-1.15625 0 -1.703125 0.40625q-0.546875 0.40625 -0.8125 1.421875l-1.609375 -0.21875q0.21875 -1.015625 0.71875 -1.640625q0.5 -0.640625 1.453125 -0.984375q0.953125 -0.34375 2.1875 -0.34375q1.25 0 2.015625 0.296875q0.78125 0.28125 1.140625 0.734375q0.375 0.4375 0.515625 1.109375q0.078125 0.421875 0.078125 1.515625l0 2.1875q0 2.28125 0.109375 2.890625q0.109375 0.59375 0.40625 1.15625l-1.703125 0q-0.265625 -0.515625 -0.328125 -1.1875zm-0.140625 -3.671875q-0.890625 0.375 -2.671875 0.625q-1.015625 0.140625 -1.4375 0.328125q-0.421875 0.1875 -0.65625 0.53125q-0.21875 0.34375 -0.21875 0.78125q0 0.65625 0.5 1.09375q0.5 0.4375 1.453125 0.4375q0.9375 0 1.671875 -0.40625q0.75 -0.421875 1.09375 -1.140625q0.265625 -0.5625 0.265625 -1.640625l0 -0.609375zm4.2038574 4.859375l0 -9.671875l1.46875 0l0 1.375q1.0625 -1.59375 3.078125 -1.59375q0.875 0 1.609375 0.3125q0.734375 0.3125 1.09375 0.828125q0.375 0.5 0.515625 1.203125q0.09375 0.453125 0.09375 1.59375l0 5.953125l-1.640625 0l0 -5.890625q0 -1.0 -0.203125 -1.484375q-0.1875 -0.5 -0.671875 -0.796875q-0.484375 -0.296875 -1.140625 -0.296875q-1.046875 0 -1.8125 0.671875q-0.75 0.65625 -0.75 2.515625l0 5.28125l-1.640625 0zm17.000732 -3.109375l1.6875 0.203125q-0.40625 1.484375 -1.484375 2.3125q-1.078125 0.8125 -2.765625 0.8125q-2.125 0 -3.375 -1.296875q-1.234375 -1.3125 -1.234375 -3.671875q0 -2.453125 1.25 -3.796875q1.265625 -1.34375 3.265625 -1.34375q1.9375 0 3.15625 1.328125q1.234375 1.3125 1.234375 3.703125q0 0.15625 0 0.4375l-7.21875 0q0.09375 1.59375 0.90625 2.453125q0.8125 0.84375 2.015625 0.84375q0.90625 0 1.546875 -0.46875q0.640625 -0.484375 1.015625 -1.515625zm-5.390625 -2.65625l5.40625 0q-0.109375 -1.21875 -0.625 -1.828125q-0.78125 -0.953125 -2.03125 -0.953125q-1.125 0 -1.90625 0.765625q-0.765625 0.75 -0.84375 2.015625zm9.094421 5.765625l0 -13.359375l1.640625 0l0 13.359375l-1.640625 0z" fill-rule="nonzero"/><path fill="#cfe2f3" d="m338.2638 349.87927l31.952728 0l0 -5.1732483l10.346466 10.346466l-10.346466 10.346466l0 -5.1732483l-31.952728 0z" fill-rule="evenodd"/><path stroke="#000000" stroke-width="1.0" stroke-linejoin="round" stroke-linecap="butt" d="m338.2638 349.87927l31.952728 0l0 -5.1732483l10.346466 10.346466l-10.346466 10.346466l0 -5.1732483l-31.952728 0z" fill-rule="evenodd"/><path fill="#cfe2f3" d="m617.3779 347.937l31.952759 0l0 -5.173218l10.346497 10.346436l-10.346497 10.346466l0 -5.173218l-31.952759 0z" fill-rule="evenodd"/><path stroke="#000000" stroke-width="1.0" stroke-linejoin="round" stroke-linecap="butt" d="m617.3779 347.937l31.952759 0l0 -5.173218l10.346497 10.346436l-10.346497 10.346466l0 -5.173218l-31.952759 0z" fill-rule="evenodd"/><path fill="#000000" fill-opacity="0.0" d="m692.44354 152.48018l131.87402 0l0 436.97638l-131.87402 0z" fill-rule="evenodd"/><path stroke="#000000" stroke-width="2.0" stroke-linejoin="round" stroke-linecap="butt" stroke-dasharray="8.0,6.0,2.0,6.0" d="m692.44354 152.48018l131.87402 0l0 436.97638l-131.87402 0z" fill-rule="evenodd"/><path fill="#000000" fill-opacity="0.0" d="m700.3963 107.28871l115.968506 0l0 38.14174l-115.968506 0z" fill-rule="evenodd"/><path fill="#000000" d="m710.8338 134.20871l0 -13.359375l5.046875 0q1.328125 0 2.03125 0.125q0.96875 0.171875 1.640625 0.640625q0.671875 0.453125 1.078125 1.28125q0.40625 0.828125 0.40625 1.828125q0 1.703125 -1.09375 2.890625q-1.078125 1.171875 -3.921875 1.171875l-3.421875 0l0 5.421875l-1.765625 0zm1.765625 -7.0l3.453125 0q1.71875 0 2.4375 -0.640625q0.71875 -0.640625 0.71875 -1.796875q0 -0.84375 -0.421875 -1.4375q-0.421875 -0.59375 -1.125 -0.78125q-0.4375 -0.125 -1.640625 -0.125l-3.421875 0l0 4.78125zm14.4904785 7.0l-5.171875 -13.359375l1.921875 0l3.46875 9.703125q0.421875 1.171875 0.703125 2.1875q0.3125 -1.09375 0.71875 -2.1875l3.609375 -9.703125l1.796875 0l-5.234375 13.359375l-1.8125 0zm13.767517 0l0 -13.359375l2.65625 0l3.15625 9.453125q0.4375 1.328125 0.640625 1.984375q0.234375 -0.734375 0.703125 -2.140625l3.203125 -9.296875l2.375 0l0 13.359375l-1.703125 0l0 -11.171875l-3.875 11.171875l-1.59375 0l-3.859375 -11.375l0 11.375l-1.703125 0zm14.7751465 -4.84375q0 -2.6875 1.484375 -3.96875q1.25 -1.078125 3.046875 -1.078125q2.0 0 3.265625 1.3125q1.265625 1.296875 1.265625 3.609375q0 1.859375 -0.5625 2.9375q-0.5625 1.0625 -1.640625 1.65625q-1.0625 0.59375 -2.328125 0.59375q-2.03125 0 -3.28125 -1.296875q-1.25 -1.3125 -1.25 -3.765625zm1.6875 0q0 1.859375 0.796875 2.796875q0.8125 0.921875 2.046875 0.921875q1.21875 0 2.03125 -0.921875q0.8125 -0.9375 0.8125 -2.84375q0 -1.796875 -0.8125 -2.71875q-0.8125 -0.921875 -2.03125 -0.921875q-1.234375 0 -2.046875 0.921875q-0.796875 0.90625 -0.796875 2.765625zm15.563232 4.84375l0 -1.21875q-0.90625 1.4375 -2.703125 1.4375q-1.15625 0 -2.125 -0.640625q-0.96875 -0.640625 -1.5 -1.78125q-0.53125 -1.140625 -0.53125 -2.625q0 -1.453125 0.484375 -2.625q0.484375 -1.1875 1.4375 -1.8125q0.96875 -0.625 2.171875 -0.625q0.875 0 1.546875 0.375q0.6875 0.359375 1.109375 0.953125l0 -4.796875l1.640625 0l0 13.359375l-1.53125 0zm-5.171875 -4.828125q0 1.859375 0.78125 2.78125q0.78125 0.921875 1.84375 0.921875q1.078125 0 1.828125 -0.875q0.75 -0.890625 0.75 -2.6875q0 -1.984375 -0.765625 -2.90625q-0.765625 -0.9375 -1.890625 -0.9375q-1.078125 0 -1.8125 0.890625q-0.734375 0.890625 -0.734375 2.8125zm15.610107 4.828125l0 -1.421875q-1.125 1.640625 -3.0625 1.640625q-0.859375 0 -1.609375 -0.328125q-0.734375 -0.328125 -1.09375 -0.828125q-0.359375 -0.5 -0.5 -1.21875q-0.109375 -0.46875 -0.109375 -1.53125l0 -5.984375l1.640625 0l0 5.359375q0 1.28125 0.109375 1.734375q0.15625 0.640625 0.65625 1.015625q0.5 0.375 1.234375 0.375q0.734375 0 1.375 -0.375q0.65625 -0.390625 0.921875 -1.03125q0.265625 -0.65625 0.265625 -1.890625l0 -5.1875l1.640625 0l0 9.671875l-1.46875 0zm4.0006714 0l0 -13.359375l1.640625 0l0 13.359375l-1.640625 0zm10.816711 -3.109375l1.6875 0.203125q-0.40625 1.484375 -1.484375 2.3125q-1.078125 0.8125 -2.765625 0.8125q-2.125 0 -3.375 -1.296875q-1.234375 -1.3125 -1.234375 -3.671875q0 -2.453125 1.25 -3.796875q1.265625 -1.34375 3.265625 -1.34375q1.9375 0 3.15625 1.328125q1.234375 1.3125 1.234375 3.703125q0 0.15625 0 0.4375l-7.21875 0q0.09375 1.59375 0.90625 2.453125q0.8125 0.84375 2.015625 0.84375q0.90625 0 1.546875 -0.46875q0.640625 -0.484375 1.015625 -1.515625zm-5.390625 -2.65625l5.40625 0q-0.109375 -1.21875 -0.625 -1.828125q-0.78125 -0.953125 -2.03125 -0.953125q-1.125 0 -1.90625 0.765625q-0.765625 0.75 -0.84375 2.015625z" fill-rule="nonzero"/><path fill="#000000" fill-opacity="0.0" d="m736.83466 185.96063l42.299194 0l0 31.779526l-42.299194 0z" fill-rule="evenodd"/><path fill="#000000" d="m753.6628 204.41689l1.265625 0.3125q-0.390625 1.5625 -1.421875 2.375q-1.03125 0.8125 -2.53125 0.8125q-1.53125 0 -2.5 -0.625q-0.96875 -0.625 -1.484375 -1.8125q-0.5 -1.1875 -0.5 -2.5625q0 -1.484375 0.5625 -2.59375q0.578125 -1.109375 1.625 -1.6875q1.0625 -0.578125 2.328125 -0.578125q1.421875 0 2.390625 0.734375q0.984375 0.71875 1.375 2.046875l-1.25 0.296875q-0.328125 -1.046875 -0.96875 -1.515625q-0.625 -0.484375 -1.578125 -0.484375q-1.09375 0 -1.84375 0.53125q-0.734375 0.53125 -1.03125 1.421875q-0.296875 0.875 -0.296875 1.828125q0 1.21875 0.34375 2.125q0.359375 0.90625 1.109375 1.359375q0.75 0.4375 1.625 0.4375q1.0625 0 1.796875 -0.609375q0.734375 -0.609375 0.984375 -1.8125zm7.406372 1.125l1.203125 0.140625q-0.28125 1.0625 -1.0625 1.65625q-0.765625 0.578125 -1.96875 0.578125q-1.515625 0 -2.40625 -0.9375q-0.890625 -0.9375 -0.890625 -2.609375q0 -1.75 0.890625 -2.703125q0.90625 -0.96875 2.34375 -0.96875q1.390625 0 2.265625 0.9375q0.875 0.9375 0.875 2.65625q0 0.109375 0 0.3125l-5.15625 0q0.0625 1.140625 0.640625 1.75q0.578125 0.59375 1.4375 0.59375q0.65625 0 1.109375 -0.328125q0.453125 -0.34375 0.71875 -1.078125zm-3.84375 -1.90625l3.859375 0q-0.078125 -0.859375 -0.4375 -1.296875q-0.5625 -0.6875 -1.453125 -0.6875q-0.8125 0 -1.359375 0.546875q-0.546875 0.53125 -0.609375 1.4375zm6.5062256 4.125l0 -9.546875l1.171875 0l0 9.546875l-1.171875 0zm2.9611206 0l0 -9.546875l1.171875 0l0 9.546875l-1.171875 0z" fill-rule="nonzero"/></g></svg>